<?xml version="1.0" encoding="UTF-8" standalone="no"?>
<svg width="26px" height="32px" viewBox="0 0 26 32" version="1.1" xmlns="http://www.w3.org/2000/svg" xmlns:xlink="http://www.w3.org/1999/xlink" xmlns:sketch="http://www.bohemiancoding.com/sketch/ns">
    <!-- Generator: Sketch 3.5.1 (25234) - http://www.bohemiancoding.com/sketch -->
    <title>Shape</title>
    <desc>Created with Sketch.</desc>
    <defs></defs>
    <g id="Page-1" stroke="none" stroke-width="1" fill="none" fill-rule="evenodd" sketch:type="MSPage">
        <g id="TEACHING_SVGs" sketch:type="MSLayerGroup" transform="translate(-103.000000, 0.000000)" fill="#ffffff">
            <path d="M126.854,4.268 L126.854,30.34 L105.583,30.34 C105.374,30.34 105.203,30.17 105.203,29.96 L105.203,28.017 C105.203,27.807 105.374,27.637 105.583,27.637 L125.502,27.637 L125.502,27.635 L125.502,0 L105.526,0 C104.481,0.03 103.639,0.89 103.639,1.942 L103.639,28.017 L103.639,29.96 C103.639,31.031 104.511,31.903 105.582,31.903 L128.417,31.903 L128.417,4.268 L126.854,4.268 L126.854,4.268 Z M111.044,12.183 L113.857,12.183 L113.857,9.134 L115.265,9.134 L115.265,12.183 L118.078,12.183 L118.078,13.589 L115.265,13.589 L115.265,18.514 L113.857,18.514 L113.857,13.589 L111.044,13.589 L111.044,12.183 L111.044,12.183 Z" id="Shape" sketch:type="MSShapeGroup"></path>
        </g>
    </g>
</svg>