<?xml version="1.0" encoding="UTF-8" standalone="no"?>
<svg width="34px" height="17px" viewBox="0 0 34 17" version="1.1" xmlns="http://www.w3.org/2000/svg" xmlns:xlink="http://www.w3.org/1999/xlink" xmlns:sketch="http://www.bohemiancoding.com/sketch/ns">
    <!-- Generator: Sketch 3.5.1 (25234) - http://www.bohemiancoding.com/sketch -->
    <title>Group</title>
    <desc>Created with Sketch.</desc>
    <defs></defs>
    <g id="Page-1" stroke="none" stroke-width="1" fill="none" fill-rule="evenodd" sketch:type="MSPage">
        <g id="TEACHING_SVGs" sketch:type="MSLayerGroup" transform="translate(-423.000000, -1.000000)" fill="#ffffff">
            <g id="Group" transform="translate(423.000000, 1.000000)" sketch:type="MSShapeGroup">
                <path d="M11.055,8.269 L10.898,8.292 C10.881,8.292 9.098,8.536 7.017,9.314 C4.61,10.21 3.203,11.135 3.147,11.171 L3.011,11.263 L3.067,11.413 C3.894,13.628 6.373,14.765 8.589,13.933 C10.804,13.114 11.937,10.634 11.112,8.418 L11.055,8.269 L11.055,8.269 Z M8.448,13.562 C7.366,13.965 6.224,13.836 5.277,13.335 C5.842,12.393 6.876,11.79 7.525,11.934 C7.981,12.035 8.343,12.322 8.794,11.742 C9.247,11.159 9.977,11.336 10.574,11.361 C10.623,11.361 10.643,11.365 10.68,11.369 C10.285,12.347 9.511,13.166 8.448,13.562 L8.448,13.562 Z" id="Shape"></path>
                <path d="M9.213,7.588 C9.595,7.453 9.786,7.027 9.645,6.651 C9.504,6.271 9.081,6.075 8.702,6.218 C8.323,6.361 8.133,6.779 8.276,7.158 C8.413,7.539 8.836,7.731 9.213,7.588 L9.213,7.588 Z" id="Shape"></path>
                <path d="M4.039,9.518 C4.418,9.375 4.609,8.954 4.471,8.575 C4.329,8.198 3.907,8.003 3.527,8.145 C3.15,8.285 2.955,8.706 3.096,9.085 C3.238,9.466 3.659,9.657 4.039,9.518 L4.039,9.518 Z" id="Shape"></path>
                <path d="M20.132,9.386 C18.048,8.608 16.258,8.36 16.245,8.36 L16.082,8.34 L16.028,8.491 C15.2,10.71 16.337,13.193 18.555,14.02 C20.779,14.843 23.265,13.711 24.091,11.489 L24.147,11.339 L24.014,11.248 C23.957,11.211 22.546,10.285 20.132,9.386 L20.132,9.386 Z M18.695,13.645 C17.633,13.247 16.856,12.424 16.46,11.445 C16.497,11.441 16.518,11.437 16.566,11.437 C17.166,11.411 17.898,11.234 18.35,11.817 C18.798,12.4 19.164,12.11 19.623,12.008 C20.272,11.867 21.309,12.471 21.875,13.417 C20.925,13.919 19.781,14.046 18.695,13.645 L18.695,13.645 Z" id="Shape"></path>
                <path d="M17.932,7.655 C18.31,7.799 18.735,7.606 18.873,7.223 C19.015,6.847 18.823,6.421 18.444,6.283 C18.063,6.143 17.637,6.335 17.499,6.716 C17.356,7.092 17.55,7.517 17.932,7.655 L17.932,7.655 Z" id="Shape"></path>
                <path d="M22.688,8.646 C22.546,9.026 22.74,9.447 23.122,9.589 C23.5,9.729 23.922,9.536 24.065,9.156 C24.207,8.776 24.009,8.355 23.633,8.212 C23.249,8.073 22.827,8.265 22.688,8.646 L22.688,8.646 Z" id="Shape"></path>
                <path d="M31.008,3.488 C28.175,2.625 26.475,3.992 25.681,4.943 C25.324,4.748 24.919,4.699 24.568,4.88 C23.958,4.338 23.251,3.887 22.441,3.585 C18.912,2.273 14.968,4.074 13.657,7.606 C13.62,7.707 13.61,7.809 13.577,7.911 C13.54,7.787 13.526,7.661 13.48,7.539 C12.547,5.037 10.288,3.43 7.796,3.164 C8.231,0.757 5.449,0.005 5.449,0.005 C5.894,1.344 3.163,3.594 3.163,3.594 C3.163,2.654 2.679,2.295 2.679,2.295 C1.981,3.698 1.493,4.887 1.14,5.899 L1.139,5.898 C1.139,5.898 -0.591,9.031 0.912,12.72 C2.377,15.948 6.1,17.557 9.47,16.3 C11.505,15.545 12.937,13.903 13.555,11.979 C14.158,13.94 15.608,15.62 17.677,16.391 C21.204,17.707 25.15,15.906 26.462,12.37 C27.036,10.824 26.984,9.207 26.479,7.757 C26.591,7.639 26.676,7.501 26.73,7.341 C27.483,7.66 28.171,8.624 27.357,11.393 C25.913,16.279 29.82,16.674 30.555,16.899 C31.286,17.129 31.313,16.899 31.313,16.899 C28.58,15.256 31.806,12.785 33.157,10.576 C34.063,9.097 35.159,4.752 31.008,3.488 L31.008,3.488 Z M8.991,15.024 C6.175,16.074 3.031,14.633 1.983,11.816 C0.932,9.002 2.371,5.857 5.189,4.804 C8.006,3.758 11.15,5.195 12.2,8.012 C13.25,10.829 11.81,13.976 8.991,15.024 L8.991,15.024 Z M25.181,11.892 C24.127,14.721 20.977,16.162 18.154,15.112 C15.332,14.063 13.884,10.907 14.936,8.082 C15.329,7.032 16.013,6.173 16.861,5.561 C17.845,5.866 19.874,6.174 23.071,5.443 C25.139,6.812 26.082,9.467 25.181,11.892 L25.181,11.892 Z" id="Shape"></path>
            </g>
        </g>
    </g>
</svg>