<?xml version="1.0" encoding="UTF-8" standalone="no"?>
<svg width="20px" height="19px" viewBox="0 0 20 19" version="1.1" xmlns="http://www.w3.org/2000/svg" xmlns:xlink="http://www.w3.org/1999/xlink" xmlns:sketch="http://www.bohemiancoding.com/sketch/ns">
    <!-- Generator: Sketch 3.5.1 (25234) - http://www.bohemiancoding.com/sketch -->
    <title>Health_Nutrition</title>
    <desc>Created with Sketch.</desc>
    <defs></defs>
    <g id="Page-1" stroke="none" stroke-width="1" fill="none" fill-rule="evenodd" sketch:type="MSPage">
        <g id="Health_Nutrition" sketch:type="MSLayerGroup" fill="#ffffff">
            <path d="M5.369,3.711 L3.957,9.253 L1.148,9.253 C0.43,8.283 0,7.056 0,5.721 C0,2.575 2.387,0.024 5.326,0.024 L5.326,0.024 C7.283,0.024 8.99,1.149 9.918,2.827 C10.846,1.149 12.553,0.024 14.508,0.024 C17.449,0.024 19.836,2.575 19.836,5.721 C19.836,7.518 19.059,9.12 17.842,10.164 L9.918,18.09 L2.367,10.539 L4.455,10.539 C4.764,10.539 5.019,10.323 5.082,10.034 L6.039,6.278 L8.35,14.028 L7.873,12.932 L8.35,14.028 C8.452,14.37 8.809,14.563 9.149,14.462 C9.379,14.396 9.544,14.205 9.592,13.983 L11.522,7.483 L12.211,10.084 L12.389,10.666 L12.211,10.086 C12.287,10.375 12.547,10.565 12.832,10.565 L12.836,10.565 L15.127,10.565 C15.481,10.565 15.77,10.276 15.77,9.921 C15.77,9.566 15.483,9.278 15.127,9.278 L13.324,9.278 L12.185,4.992 C12.142,4.764 11.976,4.569 11.738,4.498 C11.398,4.397 11.041,4.591 10.939,4.931 L10.632,5.842 L10.941,4.933 L8.962,11.596 L6.615,3.72 C6.56,3.495 6.388,3.308 6.148,3.246 C5.807,3.16 5.457,3.367 5.369,3.711" id="Shape" sketch:type="MSShapeGroup"></path>
        </g>
    </g>
</svg>