<?xml version="1.0" encoding="UTF-8" standalone="no"?>
<svg width="31px" height="34px" viewBox="0 0 31 34" version="1.1" xmlns="http://www.w3.org/2000/svg" xmlns:xlink="http://www.w3.org/1999/xlink" xmlns:sketch="http://www.bohemiancoding.com/sketch/ns">
    <!-- Generator: Sketch 3.5.1 (25234) - http://www.bohemiancoding.com/sketch -->
    <title>TEACHING_SVGs 2</title>
    <desc>Created with Sketch.</desc>
    <defs></defs>
    <g id="Page-1" stroke="none" stroke-width="1" fill="none" fill-rule="evenodd" sketch:type="MSPage">
        <g id="TEACHING_SVGs" sketch:type="MSLayerGroup" transform="translate(-46.000000, 0.000000)" fill="#ffffff">
            <g id="Group" transform="translate(46.000000, 0.000000)" sketch:type="MSShapeGroup">
                <path d="M29.634,21.248 L30.734,20.309 L15.622,7.461 L0.509,20.309 L1.61,21.248 L15.622,9.336 L29.634,21.248 Z" id="Shape"></path>
                <rect id="Rectangle-path" x="14.947" y="0" width="1.349" height="8.628"></rect>
                <rect id="Rectangle-path" x="11.246" y="2.594" width="8.752" height="1.147"></rect>
                <path d="M15.622,10.634 L3.555,20.893 L3.555,24.421 L3.555,26.073 L3.555,32.64 L11.281,32.64 L12.977,32.64 L12.977,32.598 L12.977,21.638 L12.977,21.354 C12.977,20.112 14.163,19.104 15.623,19.104 C17.082,19.104 18.267,20.112 18.267,21.354 L18.267,21.638 L18.267,32.599 L18.267,32.641 L19.965,32.641 L27.688,32.641 L27.688,26.074 L27.688,24.422 L27.688,20.894 L15.622,10.634 L15.622,10.634 Z M9.027,28.237 C9.027,28.77 8.519,29.203 7.89,29.203 C7.265,29.203 6.756,28.77 6.756,28.237 L6.756,23.633 C6.756,23.099 7.265,22.668 7.89,22.668 C8.519,22.668 9.027,23.099 9.027,23.633 L9.027,28.237 L9.027,28.237 Z M24.486,28.237 C24.486,28.77 23.978,29.203 23.351,29.203 C22.723,29.203 22.215,28.77 22.215,28.237 L22.215,23.633 C22.215,23.099 22.723,22.668 23.351,22.668 C23.978,22.668 24.486,23.099 24.486,23.633 L24.486,28.237 L24.486,28.237 Z" id="Shape"></path>
                <rect id="Rectangle-path" x="3.555" y="33.213" width="24.132" height="0.743"></rect>
            </g>
        </g>
    </g>
</svg>