<?xml version="1.0" encoding="UTF-8" standalone="no"?>
<svg width="200px" height="200px" viewBox="0 0 200 200" version="1.1" xmlns="http://www.w3.org/2000/svg" xmlns:xlink="http://www.w3.org/1999/xlink">
    <!-- Generator: Sketch 39.1 (31720) - http://www.bohemiancoding.com/sketch -->
    <title>Rectangle</title>
    <desc>Created with Sketch.</desc>
    <defs></defs>
    <g id="Page-1" stroke="none" stroke-width="1" fill="none" fill-rule="evenodd">
        <g id="256">
            <rect id="Rectangle" x="0" y="0" width="200" height="200"></rect>
            <g id="genre_Date-Night" transform="translate(53.000000, 18.000000)" fill="#FFFFFF">
                <g id="Capa_1">
                    <g id="Group">
                        <path d="M36.3099756,23.7586094 L19.2917359,23.8559485 C17.6716259,23.8204893 16.1214303,24.762824 15.468044,26.3475966 L0.493814181,62.6664206 C-0.354449878,64.7239828 0.629462103,67.0781974 2.69158924,67.9248155 C3.19422983,68.1313133 3.71429095,68.2288841 4.22599022,68.2288841 C5.81381418,68.2288841 7.31987775,67.2879399 7.96141809,65.7319056 L15.5491076,47.3287983 L15.5491076,102.519811 C15.5491076,105.511828 18.0332763,107.92491 21.056088,107.817605 C23.9351222,107.715399 26.1751711,105.267322 26.1751711,102.392807 L26.1751711,73.7830043 C26.1751711,72.6652275 27.0208802,71.6890558 28.1388142,71.6169785 C29.3638264,71.5379485 30.3818826,72.5060086 30.3818826,73.7111588 L30.3818826,102.519811 C30.3818826,105.511828 32.8660513,107.92491 35.8886308,107.817605 C38.767665,107.715631 41.0081785,105.26709 41.0081785,102.392575 L41.0081785,28.446412 C41.0084108,25.8574249 38.9049389,23.7586094 36.3099756,23.7586094 L36.3099756,23.7586094 Z" id="Shape"></path>
                        <path d="M59.3169315,10.4773906 C59.3169315,4.68988841 54.6171027,0 48.8165281,0 C43.6173105,0 39.3051467,3.76841202 38.4659413,8.71717597 C37.3254768,4.16170815 33.1988998,0.787751073 28.2793399,0.787751073 C22.478533,0.787751073 17.7784719,5.47763948 17.7784719,11.2651416 C17.7784719,17.052412 22.478533,21.7427639 28.2793399,21.7427639 C33.4785575,21.7427639 37.7907213,17.9738884 38.6296944,13.025588 C39.7701589,17.5810558 43.8965037,20.9552446 48.8165281,20.9552446 C54.6171027,20.9552446 59.3169315,16.2648927 59.3169315,10.4773906 L59.3169315,10.4773906 Z" id="Shape"></path>
                        <path d="M94.6750489,81.2417253 C93.9229462,78.5639742 91.1368215,77.0014506 88.4531296,77.7528155 L76.2599144,81.1643176 L75.8434474,78.8346695 L80.1054401,77.5657854 C84.0873105,76.3803348 85.7594499,71.6700515 83.4139487,68.2478884 L69.4675306,47.8977682 L68.0067604,43.01297 L80.5516381,58.4831588 C81.3494988,59.4672103 82.515978,59.9777768 83.6926773,59.9777768 C84.5846088,59.9777768 85.4823472,59.6843691 86.2298044,59.080867 C87.9632641,57.6812704 88.2315403,55.1446609 86.8288386,53.4150386 L62.0719315,22.8853391 C60.9918582,21.5529528 59.235868,21.0922146 57.6933374,21.5888755 C57.3795355,21.6159914 47.9715159,24.3818112 47.9715159,24.3818112 C45.8257702,25.0205408 44.3580318,26.9939742 44.367555,29.2286009 L44.5826406,79.8099142 C44.5001834,83.9549356 48.4860024,86.9803262 52.4676406,85.7946438 L53.7288875,85.4191931 L53.7288875,102.492695 C53.7288875,105.273811 55.9884474,107.528369 58.7757335,107.528369 C61.5630196,107.528369 63.8228117,105.273811 63.8228117,102.492695 L63.8228117,82.4139657 L66.108154,81.7335193 L67.299022,88.3956824 C67.5489487,89.7938884 68.3788631,91.0219828 69.5848289,91.776824 C70.3963936,92.285073 71.3275795,92.5471931 72.267824,92.5471931 C72.7240098,92.5471931 73.1825183,92.4855451 73.63011,92.3601631 L91.177934,87.4503348 C93.8620905,86.6992017 95.4276161,83.9197082 94.6750489,81.2417253 L94.6750489,81.2417253 Z" id="Shape"></path>
                    </g>
                </g>
            </g>
        </g>
    </g>
</svg>