<?xml version="1.0" encoding="UTF-8" standalone="no"?>
<svg width="200px" height="200px" viewBox="0 0 200 200" version="1.1" xmlns="http://www.w3.org/2000/svg" xmlns:xlink="http://www.w3.org/1999/xlink">
    <!-- Generator: Sketch 39.1 (31720) - http://www.bohemiancoding.com/sketch -->
    <title>Rectangle</title>
    <desc>Created with Sketch.</desc>
    <defs></defs>
    <g id="Page-1" stroke="none" stroke-width="1" fill="none" fill-rule="evenodd">
        <g id="256">
            <rect id="Rectangle" x="0" y="0" width="200" height="200"></rect>
            <g id="genre_Hymns" transform="translate(58.000000, 17.000000)" fill="#FFFFFF">
                <g id="Shape">
                    <g id="Page-1">
                        <g id="TEACHING_SVGs">
                            <path d="M79.2629418,14.4045 L79.2629418,102.3975 L7.21719508,102.3975 C6.50930353,102.3975 5.93011954,101.82375 5.93011954,101.115 L5.93011954,94.557375 C5.93011954,93.848625 6.50930353,93.274875 7.21719508,93.274875 L74.6836625,93.274875 L74.6836625,93.268125 L74.6836625,0 L7.02413375,0 C3.48467602,0.10125 0.632787595,3.00375 0.632787595,6.55425 L0.632787595,94.557375 L0.632787595,101.115 C0.632787595,104.729625 3.58628725,107.672625 7.21380804,107.672625 L84.5568867,107.672625 L84.5568867,14.4045 L79.2629418,14.4045 L79.2629418,14.4045 L79.2629418,14.4045 Z M25.7138254,41.117625 L35.2415714,41.117625 L35.2415714,30.82725 L40.0105249,30.82725 L40.0105249,41.117625 L49.538271,41.117625 L49.538271,45.862875 L40.0105249,45.862875 L40.0105249,62.48475 L35.2415714,62.48475 L35.2415714,45.862875 L25.7138254,45.862875 L25.7138254,41.117625 L25.7138254,41.117625 L25.7138254,41.117625 Z" id="Shape"></path>
                        </g>
                    </g>
                </g>
            </g>
        </g>
    </g>
</svg>