<?xml version="1.0" encoding="UTF-8" standalone="no"?>
<svg width="200px" height="200px" viewBox="0 0 200 200" version="1.1" xmlns="http://www.w3.org/2000/svg" xmlns:xlink="http://www.w3.org/1999/xlink">
    <!-- Generator: Sketch 39.1 (31720) - http://www.bohemiancoding.com/sketch -->
    <title>Rectangle</title>
    <desc>Created with Sketch.</desc>
    <defs></defs>
    <g id="Page-1" stroke="none" stroke-width="1" fill="none" fill-rule="evenodd">
        <g id="256">
            <rect id="Rectangle" x="0" y="0" width="200" height="200"></rect>
            <g id="genre_Kids" transform="translate(26.000000, 25.000000)" fill="#FFFFFF">
                <g id="Group">
                    <g id="Page-1">
                        <g id="TEACHING_SVGs">
                            <g id="Group">
                                <path d="M47.6467728,36.368287 L46.955905,36.4694444 C46.8810977,36.4694444 39.0351279,37.5425926 29.8778295,40.9643519 C19.2859903,44.9050926 13.0945828,48.9733796 12.8481587,49.131713 L12.2496999,49.5363426 L12.4961241,50.1960648 C16.1352812,59.937963 27.0439514,64.9386574 36.7953081,61.2793981 C46.5422644,57.6773148 51.5279536,46.7699074 47.8975974,37.0236111 L47.6467728,36.368287 L47.6467728,36.368287 L47.6467728,36.368287 Z M36.1748473,59.6476852 C31.4135801,61.4201389 26.3882871,60.8527778 22.2210783,58.6493056 C24.7073222,54.50625 29.2573686,51.8541667 32.1132488,52.4875 C34.1198457,52.931713 35.7128019,54.1939815 37.6973967,51.6430556 C39.6907922,49.0789352 42.9031074,49.8574074 45.5301651,49.9673611 C45.7457863,49.9673611 45.8337949,49.9849537 45.9966109,50.0025463 C44.2584404,54.3039352 40.8525062,57.9060185 36.1748473,59.6476852 L36.1748473,59.6476852 L36.1748473,59.6476852 Z" id="Shape"></path>
                                <path d="M39.5411775,33.3731481 C41.2221425,32.7793981 42.0626249,30.905787 41.4421641,29.2520833 C40.8217032,27.580787 38.9603206,26.71875 37.2925569,27.3476852 C35.6247933,27.9766204 34.7887113,29.8150463 35.417973,31.4819444 C36.0208322,33.1576389 37.8822148,34.0020833 39.5411775,33.3731481 L39.5411775,33.3731481 L39.5411775,33.3731481 Z" id="Shape"></path>
                                <path d="M16.7733438,41.8615741 C18.4411074,41.2326389 19.2815899,39.3810185 18.6743303,37.7141204 C18.049469,36.0560185 16.1924868,35.1983796 14.5203227,35.8229167 C12.86136,36.4386574 12.0032758,38.2902778 12.6237366,39.9571759 C13.2485979,41.6328704 15.1011797,42.4729167 16.7733438,41.8615741 L16.7733438,41.8615741 L16.7733438,41.8615741 Z" id="Shape"></path>
                                <path d="M87.5894916,41.2810185 C78.4189919,37.8592593 70.5422191,36.7685185 70.4850135,36.7685185 L69.7677431,36.6805556 L69.5301198,37.3446759 C65.8865623,47.1041667 70.8898532,58.0247685 80.6500108,61.662037 C90.436571,65.281713 101.376044,60.3030093 105.010801,50.5303241 L105.257225,49.8706019 L104.671968,49.4703704 C104.421143,49.3076389 98.2121338,45.2349537 87.5894916,41.2810185 L87.5894916,41.2810185 L87.5894916,41.2810185 Z M81.2660712,60.0127315 C76.5928127,58.2622685 73.1736773,54.6425926 71.4311063,50.3368056 C71.5939223,50.319213 71.6863314,50.3016204 71.8975521,50.3016204 C74.5378111,50.1872685 77.7589271,49.4087963 79.7479223,51.9729167 C81.7193157,54.537037 83.3298737,53.2615741 85.3496719,52.812963 C88.2055521,52.1928241 92.7687998,54.8493056 95.2594441,59.0099537 C91.079034,61.2178241 86.0449401,61.7763889 81.2660712,60.0127315 L81.2660712,60.0127315 L81.2660712,60.0127315 Z" id="Shape"></path>
                                <path d="M77.9085418,33.6678241 C79.571905,34.3011574 81.4420885,33.4523148 82.0493481,31.7678241 C82.6742094,30.1141204 81.8293265,28.2405093 80.1615629,27.6335648 C78.4849984,27.0178241 76.6104145,27.8622685 76.0031549,29.537963 C75.3738931,31.1916667 76.2275769,33.0608796 77.9085418,33.6678241 L77.9085418,33.6678241 L77.9085418,33.6678241 Z" id="Shape"></path>
                                <path d="M98.8369951,38.0263889 C98.2121338,39.6976852 99.0658176,41.5493056 100.746783,42.1738426 C102.410146,42.7895833 104.267128,41.9407407 104.89639,40.2694444 C105.521251,38.5981481 104.649965,36.7465278 102.995403,36.1175926 C101.305637,35.50625 99.4486552,36.3506944 98.8369951,38.0263889 L98.8369951,38.0263889 L98.8369951,38.0263889 Z" id="Shape"></path>
                                <path d="M135.448587,15.3407407 C122.982164,11.5451389 115.50143,17.5574074 112.007487,21.7400463 C110.436533,20.8824074 108.654358,20.6668981 107.109807,21.462963 C104.425543,19.0791667 101.314438,17.0956019 97.7500885,15.7673611 C82.2209649,9.99699074 64.8656622,17.9180556 59.0966962,33.4523148 C58.9338802,33.8965278 58.8898759,34.3451389 58.7446616,34.79375 C58.5818457,34.2483796 58.5202396,33.694213 58.3178198,33.1576389 C54.2122169,22.1534722 44.2716417,15.0856481 33.3057658,13.9157407 C35.2199536,3.32939815 22.9779525,0.0219907407 22.9779525,0.0219907407 C24.9361446,5.91111111 12.9185656,15.8069444 12.9185656,15.8069444 C12.9185656,11.6726852 10.7887566,10.09375 10.7887566,10.09375 C7.71725526,16.2643519 5.56984458,21.49375 4.01649217,25.9446759 L4.01209174,25.9402778 C4.01209174,25.9402778 -3.60065515,39.7196759 3.01319374,55.9444444 C9.45982623,70.1416667 25.8426336,77.218287 40.6720885,71.6898148 C49.6269671,68.369213 55.9283853,61.1474537 58.6478521,52.6854167 C61.3013125,61.3101852 67.6819385,68.6990741 76.7864317,72.0900463 C92.3067545,77.8780093 109.670858,69.9569444 115.444225,54.4050926 C117.970072,47.6055556 117.74125,40.49375 115.519032,34.1164352 C116.01188,33.5974537 116.385917,32.9905093 116.62354,32.2868056 C119.937065,33.6898148 122.964562,37.9296296 119.382611,50.1081019 C113.028387,71.5974537 130.220874,73.3347222 133.455192,74.3243056 C136.671907,75.3358796 136.790719,74.3243056 136.790719,74.3243056 C124.764339,67.0981481 138.960132,56.2303241 144.905115,46.5148148 C148.891906,40.0099537 153.714779,20.9 135.448587,15.3407407 L135.448587,15.3407407 L135.448587,15.3407407 Z M38.5642817,66.0777778 C26.1726659,70.6958333 12.3377086,64.3581019 7.72605613,51.9685185 C3.10120237,39.5921296 9.43342364,25.7599537 21.8338403,21.1287037 C34.2298564,16.5282407 48.0648138,22.8483796 52.6852671,35.237963 C57.3057205,47.6275463 50.9690988,61.4685185 38.5642817,66.0777778 L38.5642817,66.0777778 L38.5642817,66.0777778 Z M109.807271,52.3027778 C105.169216,64.7451389 91.3078564,71.0828704 78.8854377,66.4648148 C66.4674193,61.8511574 60.0955942,47.9706019 64.7248484,35.5458333 C66.454218,30.9277778 69.4641133,27.1497685 73.1956794,24.4581019 C77.5257043,25.799537 86.4541802,27.1541667 100.52236,23.9391204 C109.622453,29.9601852 113.77206,41.6372685 109.807271,52.3027778 L109.807271,52.3027778 L109.807271,52.3027778 Z" id="Shape"></path>
                            </g>
                        </g>
                    </g>
                </g>
            </g>
        </g>
    </g>
</svg>