<?xml version="1.0" encoding="UTF-8" standalone="no"?>
<svg width="200px" height="200px" viewBox="0 0 200 200" version="1.1" xmlns="http://www.w3.org/2000/svg" xmlns:xlink="http://www.w3.org/1999/xlink">
    <!-- Generator: Sketch 39.1 (31720) - http://www.bohemiancoding.com/sketch -->
    <title>Rectangle</title>
    <desc>Created with Sketch.</desc>
    <defs></defs>
    <g id="Page-1" stroke="none" stroke-width="1" fill="none" fill-rule="evenodd">
        <g id="256">
            <g id="genre_Worship">
                <g id="TEACHING_SVGs-2">
                    <g id="Page-1">
                        <g id="TEACHING_SVGs">
                            <g id="Group">
                                <rect id="Rectangle" x="0" y="0" width="200" height="200"></rect>
                                <polygon id="Shape" fill="#FFFFFF" points="148.321817 88.1598994 152.089022 84.9267883 100.334484 40.6892889 48.5765215 84.9267883 52.3471505 88.1598994 100.334484 47.1451817"></polygon>
                                <rect id="Rectangle-path" fill="#FFFFFF" x="98.0227903" y="15" width="4.61996237" height="29.7074366"></rect>
                                <rect id="Rectangle-path" fill="#FFFFFF" x="85.3478602" y="23.9315126" width="29.9732473" height="3.94928486"></rect>
                                <path d="M100.334484,51.6143811 L59.0082527,86.9375837 L59.0082527,99.0849917 L59.0082527,104.773064 L59.0082527,127.384183 L85.4677258,127.384183 L91.2760699,127.384183 L91.2760699,127.239571 L91.2760699,89.5027251 L91.2760699,88.5248726 C91.2760699,84.2484891 95.3378011,80.7778011 100.337909,80.7778011 C105.334591,80.7778011 109.392898,84.2484891 109.392898,88.5248726 L109.392898,89.5027251 L109.392898,127.243014 L109.392898,127.387626 L115.208091,127.387626 L141.65729,127.387626 L141.65729,104.776507 L141.65729,99.0884349 L141.65729,86.9410269 L100.334484,51.6143811 L100.334484,51.6143811 L100.334484,51.6143811 Z M77.7483817,112.224025 C77.7483817,114.05922 76.0086183,115.550101 73.8544624,115.550101 C71.7140054,115.550101 69.9708172,114.05922 69.9708172,112.224025 L69.9708172,96.3717951 C69.9708172,94.5331569 71.7140054,93.0491623 73.8544624,93.0491623 C76.0086183,93.0491623 77.7483817,94.5331569 77.7483817,96.3717951 L77.7483817,112.224025 L77.7483817,112.224025 L77.7483817,112.224025 Z M130.691301,112.224025 C130.691301,114.05922 128.951538,115.550101 126.804231,115.550101 C124.6535,115.550101 122.913737,114.05922 122.913737,112.224025 L122.913737,96.3717951 C122.913737,94.5331569 124.6535,93.0491623 126.804231,93.0491623 C128.951538,93.0491623 130.691301,94.5331569 130.691301,96.3717951 L130.691301,112.224025 L130.691301,112.224025 L130.691301,112.224025 Z" id="Shape" fill="#FFFFFF"></path>
                                <rect id="Rectangle-path" fill="#FFFFFF" x="59.0082527" y="129.357104" width="82.6456129" height="2.55825514"></rect>
                            </g>
                        </g>
                    </g>
                </g>
            </g>
        </g>
    </g>
</svg>