<?xml version="1.0" encoding="UTF-8" standalone="no"?>
<svg width="200px" height="200px" viewBox="0 0 200 200" version="1.1" xmlns="http://www.w3.org/2000/svg" xmlns:xlink="http://www.w3.org/1999/xlink">
    <!-- Generator: Sketch 39.1 (31720) - http://www.bohemiancoding.com/sketch -->
    <title>Rectangle</title>
    <desc>Created with Sketch.</desc>
    <defs></defs>
    <g id="Page-1" stroke="none" stroke-width="1" fill="none" fill-rule="evenodd">
        <g id="256">
            <rect id="Rectangle" x="0" y="0" width="200" height="200"></rect>
            <g id="genre_Workout" transform="translate(38.000000, 21.000000)" fill="#FFFFFF">
                <g id="Health_Nutrition">
                    <g id="Page-1">
                        <g id="Health_Nutrition">
                            <path d="M33.8247,23.3468738 L24.9291,58.2130485 L7.2324,58.2130485 C2.709,52.1105243 0,44.3911456 0,35.9923107 C0,16.2 15.0381,0.150990291 33.5538,0.150990291 L33.5538,0.150990291 C45.8829,0.150990291 56.637,7.22866019 62.4834,17.7853981 C68.3298,7.22866019 79.0839,0.150990291 91.4004,0.150990291 C109.9287,0.150990291 124.9668,16.2 124.9668,35.9923107 C124.9668,47.2977087 120.0717,57.3763107 112.4046,63.9443883 L62.4834,113.808932 L14.9121,66.3036117 L28.0665,66.3036117 C30.0132,66.3036117 31.6197,64.944699 32.0166,63.1265243 L38.0457,39.4965437 L52.605,88.2538252 L49.5999,81.3586019 L52.605,88.2538252 C53.2476,90.4054369 55.4967,91.6196505 57.6387,90.984233 C59.0877,90.5690097 60.1272,89.3673786 60.4296,87.9707184 L72.5886,47.0775146 L76.9293,63.4410874 L78.0507,67.1026019 L76.9293,63.4536699 C77.4081,65.2718447 79.0461,66.4671845 80.8416,66.4671845 L80.8668,66.4671845 L95.3001,66.4671845 C97.5303,66.4671845 99.351,64.6490097 99.351,62.4156117 C99.351,60.1822136 97.5429,58.3703301 95.3001,58.3703301 L83.9412,58.3703301 L76.7655,31.4059806 C76.4946,29.9715728 75.4488,28.7447767 73.9494,28.2980971 C71.8074,27.6626796 69.5583,28.8831845 68.9157,31.0222136 L66.9816,36.7535534 L68.9283,31.0347961 L56.4606,72.9534757 L41.6745,23.4034951 C41.328,21.9879612 40.2444,20.8114951 38.7324,20.4214369 C36.5841,19.8803883 34.3791,21.1826796 33.8247,23.3468738" id="Shape"></path>
                        </g>
                    </g>
                </g>
            </g>
        </g>
    </g>
</svg>