<?xml version="1.0" encoding="utf-8"?>
<!-- Generator: Adobe Illustrator 15.0.0, SVG Export Plug-In . SVG Version: 6.00 Build 0)  -->
<!DOCTYPE svg PUBLIC "-//W3C//DTD SVG 1.1//EN" "http://www.w3.org/Graphics/SVG/1.1/DTD/svg11.dtd">
<svg version="1.1" id="Layer_1" xmlns="http://www.w3.org/2000/svg" xmlns:xlink="http://www.w3.org/1999/xlink" x="0px" y="0px"
	 width="485px" height="201px" viewBox="0 0 485 201" enable-background="new 0 0 485 201" xml:space="preserve">
<rect x="1.461" y="0.496" display="none" fill="#231F20" width="482.486" height="200.5"/>
<path fill="#FFFFFF" d="M120.953,83.466c0,4.434-1.906,8.03-5.724,10.791c-3.669,2.616-8.21,3.923-13.625,3.923H81.059v9.863H68.903
	V87.989h33.901c1.672,0,3.079-0.416,4.225-1.255c1.145-0.833,1.717-1.943,1.717-3.322c0-1.38-0.572-2.472-1.717-3.271
	c-1.146-0.797-2.553-1.198-4.225-1.198H68.903l8.065-10.194h24.69c5.377,0,9.901,1.311,13.57,3.926
	C119.047,75.436,120.953,79.032,120.953,83.466z"/>
<path fill="#FFFFFF" d="M181.126,108.043h-17.715l-11.879-9.863h-16.788v9.863h-12.209V87.989h33.901
	c2.072,0,3.777-0.309,5.122-0.929c1.708-0.796,2.563-1.978,2.563-3.539c0-3.054-2.563-4.579-7.685-4.579h-33.901l7.958-10.193
	h24.798c6.14,0,11.119,1.165,14.935,3.487c4.286,2.653,6.431,6.432,6.431,11.337c0,2.761-0.866,5.259-2.589,7.494
	c-1.729,2.235-4.115,3.952-7.167,5.151L181.126,108.043z"/>
<path fill="#FFFFFF" d="M201.456,108.043l7.357-10.189h16.404l-10.191-14.118l-17.714,24.308h-15.099l25.18-34.935
	c0.802-1.161,1.911-2.178,3.326-3.051c1.564-0.945,3.07-1.418,4.522-1.418c1.491,0,3.001,0.473,4.526,1.418
	c1.344,0.835,2.434,1.853,3.271,3.051l24.582,34.935L201.456,108.043L201.456,108.043z"/>
<path fill="#FFFFFF" d="M299.89,108.043h-43.166c-1.963,0-3.582-0.324-4.854-0.98c-1.563-0.797-2.347-1.959-2.347-3.484
	c0-1.669,0.983-3.325,2.945-4.959l23.6-19.674h-27.414l7.684-10.194h33.465c1.93,0,3.582,0.42,4.961,1.256
	c1.562,0.908,2.346,2.144,2.346,3.705c0,1.562-0.855,3.072-2.562,4.525l-23.603,19.675h21.64L299.89,108.043z"/>
<path fill="#FFFFFF" d="M361.802,88.043c0,5.741-2.242,10.512-6.729,14.309c-4.489,3.797-10.148,5.691-16.979,5.691h-11.828
	c-6.865,0-12.545-1.896-17.028-5.691c-4.491-3.797-6.731-8.565-6.731-14.309s2.225-10.393,6.674-13.953
	c4.45-3.562,10.149-5.342,17.088-5.342h11.828c6.938,0,12.627,1.78,17.059,5.342C359.584,77.651,361.802,82.301,361.802,88.043z
	 M338.095,78.943h-11.828c-3.379,0-6.158,0.897-8.338,2.698c-2.181,1.798-3.271,4.098-3.271,6.895s1.09,5.059,3.271,6.784
	c2.18,1.725,4.959,2.588,8.338,2.588h11.828c3.379,0,6.157-0.863,8.338-2.588c2.178-1.726,3.271-3.987,3.271-6.784
	s-1.102-5.097-3.298-6.895C344.206,79.84,341.437,78.943,338.095,78.943z"/>
<path fill="#FFFFFF" d="M423.61,108.043h-17.722L394.01,98.18h-16.785v9.863h-12.209V87.989h33.9c2.069,0,3.775-0.309,5.122-0.929
	c1.704-0.796,2.561-1.978,2.561-3.539c0-3.054-2.561-4.579-7.683-4.579h-33.9l7.957-10.193h24.797
	c6.143,0,11.116,1.165,14.937,3.487c4.289,2.653,6.43,6.432,6.43,11.337c0,2.761-0.865,5.259-2.589,7.494
	c-1.726,2.235-4.116,3.952-7.17,5.151L423.61,108.043z"/>
<path fill="#FFFFFF" d="M70.884,117.205c0.517-0.096,1.083-0.169,1.702-0.225s1.237-0.078,1.85-0.078
	c0.637,0,1.277,0.049,1.921,0.148c0.645,0.104,1.224,0.305,1.739,0.607c0.514,0.303,0.936,0.729,1.259,1.27
	c0.324,0.543,0.488,1.247,0.488,2.116c0,0.787-0.142,1.453-0.424,1.994c-0.282,0.54-0.654,0.983-1.123,1.33
	c-0.467,0.344-0.996,0.595-1.591,0.751c-0.594,0.152-1.211,0.232-1.849,0.232c-0.062,0-0.158,0-0.294,0
	c-0.134,0-0.274-0.006-0.423-0.012c-0.147-0.007-0.291-0.013-0.433-0.023c-0.142-0.016-0.241-0.023-0.303-0.037v4.308h-2.522
	v-12.384L70.884,117.205L70.884,117.205z M74.639,119.011c-0.246,0-0.479,0.009-0.699,0.024c-0.221,0.02-0.397,0.04-0.533,0.064
	v4.057c0.048,0.01,0.121,0.023,0.221,0.035c0.098,0.012,0.203,0.021,0.313,0.026c0.109,0.007,0.217,0.009,0.323,0.009
	c0.103,0,0.18,0,0.23,0c0.33,0,0.657-0.03,0.983-0.091c0.322-0.06,0.615-0.17,0.873-0.329c0.259-0.16,0.464-0.385,0.616-0.671
	c0.153-0.286,0.229-0.661,0.229-1.126c0-0.394-0.073-0.72-0.22-0.973c-0.148-0.257-0.343-0.464-0.58-0.619
	c-0.239-0.154-0.513-0.263-0.818-0.318C75.27,119.039,74.957,119.011,74.639,119.011z"/>
<path fill="#FFFFFF" d="M84.479,123.336c0-2.085,0.472-3.689,1.416-4.818c0.945-1.125,2.294-1.687,4.048-1.687
	c0.919,0,1.725,0.151,2.411,0.465c0.687,0.312,1.258,0.749,1.708,1.321c0.455,0.572,0.793,1.257,1.014,2.055
	c0.22,0.799,0.331,1.688,0.331,2.664c0,2.085-0.475,3.688-1.425,4.816c-0.951,1.125-2.296,1.688-4.039,1.688
	c-0.931,0-1.741-0.152-2.427-0.465c-0.688-0.311-1.254-0.749-1.702-1.322c-0.448-0.572-0.78-1.258-1.003-2.056
	C84.59,125.2,84.479,124.313,84.479,123.336z M87.128,123.336c0,0.632,0.057,1.213,0.166,1.74c0.112,0.529,0.28,0.984,0.507,1.367
	c0.228,0.382,0.518,0.681,0.873,0.896c0.355,0.213,0.778,0.32,1.27,0.32c0.897,0,1.588-0.343,2.079-1.019
	c0.49-0.681,0.736-1.783,0.736-3.308c0-0.606-0.052-1.173-0.156-1.698c-0.106-0.523-0.268-0.982-0.486-1.375
	c-0.221-0.396-0.51-0.701-0.866-0.923c-0.354-0.221-0.79-0.329-1.307-0.329c-0.895,0-1.588,0.35-2.077,1.045
	C87.373,120.752,87.128,121.848,87.128,123.336z"/>
<path fill="#FFFFFF" d="M103.723,124.068l0.238,2.218h0.074l0.257-2.254l2.244-6.953h1.654l2.208,6.989l0.258,2.218h0.073
	l0.275-2.254l1.563-6.953h2.56l-3.552,12.604h-1.691l-2.3-6.955l-0.313-1.912h-0.092l-0.313,1.93l-2.281,6.938h-1.784l-3.532-12.604
	h2.742L103.723,124.068z"/>
<path fill="#FFFFFF" d="M119.911,117.079h7.634v2.181h-5.113v2.913h4.654v2.181h-4.654v3.06h5.208v2.178h-7.729V117.079z"/>
<path fill="#FFFFFF" d="M133.192,117.205c0.281-0.049,0.585-0.094,0.911-0.135c0.325-0.04,0.65-0.075,0.975-0.098
	c0.325-0.024,0.641-0.043,0.947-0.056c0.309-0.012,0.589-0.019,0.848-0.019c0.602,0,1.192,0.055,1.775,0.162
	c0.582,0.104,1.104,0.293,1.563,0.555c0.461,0.261,0.827,0.619,1.104,1.08c0.277,0.459,0.415,1.033,0.415,1.727
	c0,1.021-0.246,1.855-0.735,2.502c-0.491,0.643-1.146,1.092-1.969,1.34l0.901,0.555l2.943,4.771h-2.906l-2.926-4.896l-1.325-0.231
	v5.127h-2.52L133.192,117.205L133.192,117.205z M137.057,119.081c-0.258,0-0.513,0.006-0.764,0.021
	c-0.25,0.013-0.445,0.035-0.58,0.07v3.628h1.066c0.699,0,1.257-0.153,1.674-0.467c0.417-0.31,0.626-0.819,0.626-1.537
	c0-0.532-0.172-0.957-0.517-1.259C138.22,119.234,137.719,119.081,137.057,119.081z"/>
<path fill="#FFFFFF" d="M147.944,117.079h7.636v2.181h-5.114v2.913h4.654v2.181h-4.654v3.06h5.207v2.178h-7.729V117.079
	L147.944,117.079z"/>
<path fill="#FFFFFF" d="M161.228,117.079c0.259-0.035,0.551-0.063,0.875-0.088c0.323-0.023,0.66-0.043,1.003-0.054
	c0.342-0.014,0.675-0.021,1.001-0.026c0.325-0.003,0.616-0.009,0.875-0.009c1.14,0,2.114,0.154,2.925,0.466
	c0.809,0.308,1.466,0.743,1.969,1.304c0.503,0.563,0.87,1.229,1.103,2.001c0.234,0.772,0.352,1.627,0.352,2.558
	c0,0.846-0.109,1.662-0.332,2.447c-0.221,0.786-0.587,1.484-1.104,2.092c-0.514,0.604-1.192,1.099-2.033,1.465
	c-0.839,0.371-1.879,0.555-3.118,0.555c-0.196,0-0.456-0.005-0.78-0.018c-0.325-0.014-0.664-0.025-1.014-0.043
	c-0.35-0.021-0.684-0.037-1.002-0.057c-0.318-0.016-0.559-0.04-0.718-0.061L161.228,117.079L161.228,117.079z M165.184,119.081
	c-0.27,0-0.542,0.006-0.818,0.021c-0.274,0.013-0.481,0.03-0.616,0.051v8.386c0.05,0.01,0.133,0.021,0.25,0.024
	c0.115,0.009,0.241,0.016,0.376,0.018c0.133,0.006,0.263,0.012,0.386,0.021c0.122,0.006,0.214,0.008,0.274,0.008
	c0.712,0,1.303-0.123,1.776-0.367c0.474-0.243,0.848-0.568,1.122-0.975c0.278-0.403,0.47-0.873,0.58-1.402
	c0.112-0.53,0.165-1.071,0.165-1.635c0-0.49-0.048-0.981-0.146-1.478c-0.1-0.493-0.279-0.937-0.543-1.327
	c-0.264-0.396-0.622-0.719-1.075-0.969S165.881,119.081,165.184,119.081z"/>
<path fill="#FFFFFF" d="M193.565,119.995c0,0.312-0.035,0.616-0.119,0.93c-0.079,0.31-0.211,0.595-0.393,0.847
	c-0.182,0.261-0.425,0.481-0.718,0.682c-0.295,0.197-0.652,0.343-1.065,0.438V123c0.368,0.061,0.715,0.16,1.046,0.305
	c0.334,0.143,0.623,0.342,0.867,0.59c0.245,0.248,0.438,0.551,0.579,0.91c0.144,0.355,0.213,0.779,0.213,1.269
	c0,0.646-0.144,1.202-0.425,1.674c-0.28,0.469-0.658,0.854-1.131,1.151c-0.471,0.299-1.01,0.52-1.608,0.664
	c-0.603,0.142-1.221,0.213-1.859,0.213c-0.208,0-0.477,0-0.801,0c-0.325,0-0.675-0.012-1.049-0.027
	c-0.375-0.018-0.751-0.044-1.139-0.082c-0.387-0.035-0.741-0.086-1.06-0.158v-12.334c0.231-0.031,0.5-0.068,0.801-0.105
	c0.297-0.033,0.622-0.063,0.965-0.088c0.341-0.023,0.695-0.045,1.056-0.055c0.364-0.014,0.722-0.017,1.076-0.017
	c0.603,0,1.188,0.044,1.757,0.134c0.572,0.089,1.079,0.246,1.529,0.473c0.446,0.227,0.807,0.543,1.075,0.947
	C193.431,118.859,193.565,119.375,193.565,119.995z M188.14,122.333c0.172,0,0.371-0.006,0.599-0.017
	c0.229-0.012,0.413-0.028,0.563-0.053c0.463-0.143,0.867-0.354,1.204-0.639c0.339-0.283,0.507-0.655,0.507-1.111
	c0-0.31-0.063-0.563-0.186-0.763c-0.123-0.201-0.285-0.358-0.487-0.479c-0.202-0.116-0.433-0.197-0.69-0.244
	c-0.255-0.049-0.526-0.074-0.809-0.074c-0.317,0-0.615,0.009-0.883,0.021c-0.271,0.012-0.479,0.029-0.625,0.053v3.306H188.14z
	 M188.971,127.713c0.305,0,0.603-0.035,0.889-0.104c0.292-0.071,0.543-0.182,0.765-0.328c0.223-0.148,0.396-0.334,0.533-0.559
	c0.136-0.224,0.201-0.49,0.201-0.799c0-0.39-0.079-0.693-0.237-0.918c-0.159-0.227-0.368-0.395-0.625-0.521
	c-0.258-0.125-0.545-0.202-0.863-0.237c-0.321-0.037-0.639-0.058-0.956-0.058h-1.344v3.418c0.061,0.021,0.159,0.041,0.294,0.052
	c0.133,0.015,0.278,0.021,0.434,0.026c0.152,0.008,0.312,0.015,0.478,0.018C188.703,127.709,188.85,127.713,188.971,127.713z"/>
<path fill="#FFFFFF" d="M202.543,124.941l-4.229-7.862h2.999l2.354,4.701l0.255,1.321h0.093l0.278-1.355l2.283-4.667h2.699
	l-4.212,7.847v4.664h-2.521v-4.646h0.001V124.941z"/>
<path fill="#FFFFFF" d="M221.86,117.079h7.637v2.181h-5.116v3.094h4.711v2.181h-4.711v5.057h-2.521V117.079L221.86,117.079z"/>
<path fill="#FFFFFF" d="M243.036,129.589h-8.149v-12.511h2.521v10.333h5.628V129.589L243.036,129.589z"/>
<path fill="#FFFFFF" d="M245.903,123.336c0-2.085,0.475-3.689,1.416-4.818c0.947-1.125,2.293-1.687,4.049-1.687
	c0.923,0,1.723,0.151,2.41,0.465c0.687,0.312,1.26,0.749,1.712,1.321s0.791,1.257,1.012,2.055c0.224,0.799,0.333,1.688,0.333,2.664
	c0,2.085-0.477,3.688-1.426,4.816c-0.95,1.125-2.299,1.688-4.041,1.688c-0.932,0-1.739-0.152-2.426-0.465
	c-0.688-0.311-1.256-0.749-1.699-1.322c-0.45-0.572-0.785-1.258-1.003-2.056C246.019,125.2,245.903,124.313,245.903,123.336z
	 M248.558,123.336c0,0.632,0.055,1.213,0.164,1.74c0.108,0.529,0.277,0.984,0.506,1.367c0.226,0.382,0.518,0.681,0.873,0.896
	c0.354,0.213,0.776,0.32,1.269,0.32c0.897,0,1.591-0.343,2.081-1.019c0.488-0.681,0.732-1.783,0.732-3.308
	c0-0.606-0.052-1.173-0.154-1.698c-0.105-0.523-0.268-0.982-0.488-1.375c-0.219-0.396-0.507-0.701-0.864-0.923
	c-0.354-0.221-0.79-0.329-1.307-0.329c-0.894,0-1.589,0.35-2.078,1.045C248.8,120.752,248.558,121.848,248.558,123.336z"/>
<path fill="#FFFFFF" d="M265.147,124.068l0.238,2.218h0.072l0.258-2.254l2.242-6.953h1.659l2.207,6.989l0.258,2.218h0.073
	l0.271-2.254l1.566-6.953h2.557L273,129.684h-1.692l-2.301-6.955l-0.313-1.912h-0.092l-0.313,1.93l-2.278,6.938h-1.781
	l-3.537-12.604h2.744L265.147,124.068z"/>
<path fill="#FFFFFF" d="M281.595,117.079h2.521v12.511h-2.521V117.079z"/>
<path fill="#FFFFFF" d="M293.459,123.066l-1.009-1.965h-0.094l0.295,1.965v6.522h-2.396V116.99h1.843l4.875,6.665l0.977,1.913h0.092
	l-0.294-1.913v-6.578h2.39v12.604h-1.839L293.459,123.066z"/>
<path fill="#FFFFFF" d="M310.567,123.066h4.802v5.576c-0.515,0.416-1.132,0.722-1.851,0.914c-0.715,0.187-1.424,0.282-2.125,0.282
	c-0.818,0-1.586-0.124-2.289-0.375s-1.313-0.639-1.828-1.171c-0.518-0.531-0.92-1.208-1.215-2.027
	c-0.295-0.822-0.443-1.8-0.443-2.932c0-1.182,0.18-2.186,0.525-3.011c0.351-0.83,0.809-1.505,1.381-2.021
	c0.567-0.52,1.211-0.896,1.922-1.126c0.712-0.23,1.436-0.348,2.171-0.348c0.737,0,1.385,0.05,1.938,0.16
	c0.561,0.104,1.006,0.219,1.336,0.339l-0.517,2.055c-0.308-0.118-0.651-0.211-1.031-0.274c-0.381-0.065-0.858-0.1-1.452-0.1
	c-0.524,0-1.011,0.074-1.451,0.231c-0.441,0.155-0.823,0.405-1.148,0.759c-0.327,0.354-0.58,0.802-0.755,1.354
	c-0.181,0.547-0.271,1.213-0.271,2c0,0.75,0.088,1.396,0.26,1.939c0.173,0.54,0.41,0.988,0.719,1.339
	c0.305,0.354,0.666,0.61,1.074,0.779c0.41,0.166,0.851,0.247,1.315,0.247c0.317,0,0.632-0.038,0.938-0.114
	c0.308-0.078,0.564-0.192,0.771-0.349v-2.358l-2.776-0.287V123.066L310.567,123.066z"/>
<path fill="#FFFFFF" d="M334.796,126.229c0-0.379-0.146-0.688-0.434-0.929c-0.288-0.237-0.65-0.454-1.088-0.653
	c-0.434-0.194-0.904-0.396-1.416-0.604c-0.508-0.208-0.979-0.465-1.416-0.769c-0.435-0.306-0.797-0.682-1.084-1.135
	c-0.289-0.453-0.437-1.031-0.437-1.734c0-0.606,0.106-1.133,0.313-1.584c0.209-0.44,0.507-0.815,0.895-1.112
	c0.389-0.299,0.846-0.521,1.369-0.663c0.527-0.143,1.115-0.213,1.77-0.213c0.746,0,1.451,0.063,2.112,0.186
	c0.661,0.127,1.208,0.312,1.638,0.549l-0.789,2.054c-0.272-0.168-0.676-0.315-1.215-0.456c-0.543-0.135-1.121-0.206-1.748-0.206
	c-0.588,0-1.041,0.116-1.354,0.343c-0.31,0.225-0.47,0.529-0.47,0.909c0,0.356,0.146,0.653,0.435,0.896
	c0.288,0.239,0.647,0.459,1.085,0.66c0.436,0.204,0.906,0.41,1.415,0.625c0.511,0.215,0.979,0.477,1.418,0.776
	c0.438,0.306,0.798,0.681,1.086,1.129c0.286,0.446,0.435,1.003,0.435,1.671c0,0.667-0.115,1.242-0.344,1.723
	c-0.228,0.483-0.543,0.886-0.955,1.211c-0.41,0.318-0.908,0.56-1.488,0.714c-0.584,0.153-1.225,0.23-1.924,0.23
	c-0.922,0-1.729-0.084-2.43-0.251c-0.699-0.166-1.214-0.334-1.547-0.498l0.813-2.093c0.135,0.072,0.311,0.149,0.521,0.231
	c0.214,0.084,0.46,0.16,0.729,0.231c0.271,0.072,0.557,0.132,0.855,0.181c0.297,0.047,0.607,0.069,0.928,0.069
	c0.75,0,1.323-0.124,1.721-0.366C334.597,127.102,334.796,126.732,334.796,126.229z"/>
<path fill="#FFFFFF" d="M351.812,119.259h-3.752v10.33h-2.521v-10.33h-3.771v-2.181h10.043V119.259L351.812,119.259z"/>
<path fill="#FFFFFF" d="M356.795,117.205c0.281-0.049,0.586-0.094,0.914-0.135c0.323-0.04,0.647-0.075,0.973-0.098
	c0.324-0.024,0.644-0.043,0.95-0.056c0.31-0.012,0.588-0.019,0.848-0.019c0.6,0,1.19,0.055,1.772,0.162
	c0.582,0.104,1.105,0.293,1.564,0.555c0.46,0.261,0.826,0.619,1.103,1.08c0.277,0.459,0.412,1.033,0.412,1.727
	c0,1.021-0.244,1.855-0.733,2.502c-0.488,0.643-1.146,1.092-1.969,1.34l0.899,0.555l2.942,4.771h-2.907l-2.926-4.896l-1.323-0.231
	v5.127h-2.521L356.795,117.205L356.795,117.205z M360.659,119.081c-0.256,0-0.512,0.006-0.766,0.021
	c-0.251,0.013-0.441,0.035-0.576,0.07v3.628h1.066c0.698,0,1.254-0.153,1.675-0.467c0.416-0.31,0.62-0.819,0.62-1.537
	c0-0.532-0.172-0.957-0.511-1.259C361.826,119.234,361.322,119.081,360.659,119.081z"/>
<path fill="#FFFFFF" d="M371.549,117.079h7.637v2.181h-5.113v2.913h4.653v2.181h-4.653v3.06h5.204v2.178h-7.729L371.549,117.079
	L371.549,117.079z"/>
<path fill="#FFFFFF" d="M391.177,126.82h-3.953l-0.977,2.77h-2.518l4.635-12.599h1.854l4.641,12.599h-2.65L391.177,126.82z
	 M387.868,124.854h2.756l-0.952-2.787l-0.389-1.967h-0.09l-0.387,1.981L387.868,124.854z"/>
<path fill="#FFFFFF" d="M409.63,123.102l0.276-2.48h-0.113l-0.789,2.002l-2.738,4.663h-0.812l-2.889-4.685l-0.812-1.98h-0.093
	l0.371,2.465v6.506h-2.392V117.08h2.299l3.438,5.721l0.605,1.43h0.074l0.552-1.465l3.254-5.686h2.284v12.511h-2.521v-6.489H409.63
	L409.63,123.102z"/>
<path fill="#FFFFFF" d="M423.593,126.229c0-0.379-0.145-0.688-0.431-0.929c-0.29-0.235-0.65-0.454-1.088-0.653
	c-0.435-0.194-0.91-0.396-1.416-0.604c-0.516-0.208-0.983-0.465-1.418-0.769c-0.438-0.306-0.796-0.682-1.088-1.135
	c-0.284-0.453-0.432-1.031-0.432-1.734c0-0.606,0.104-1.133,0.313-1.584c0.208-0.44,0.51-0.815,0.893-1.112
	c0.389-0.299,0.846-0.521,1.37-0.663c0.529-0.143,1.118-0.213,1.771-0.213c0.746,0,1.454,0.063,2.113,0.186
	c0.658,0.127,1.207,0.312,1.637,0.549l-0.791,2.054c-0.271-0.168-0.675-0.315-1.215-0.456c-0.539-0.135-1.121-0.206-1.744-0.206
	c-0.589,0-1.041,0.116-1.356,0.343c-0.312,0.225-0.47,0.529-0.47,0.909c0,0.356,0.145,0.653,0.433,0.896
	c0.292,0.239,0.652,0.459,1.086,0.66c0.438,0.204,0.91,0.41,1.417,0.625c0.514,0.215,0.979,0.477,1.419,0.776
	c0.437,0.306,0.794,0.681,1.087,1.129c0.287,0.446,0.435,1.003,0.435,1.671c0,0.667-0.115,1.242-0.344,1.723
	c-0.228,0.483-0.543,0.886-0.957,1.211c-0.409,0.318-0.906,0.56-1.49,0.714c-0.585,0.153-1.223,0.23-1.921,0.23
	c-0.921,0-1.73-0.084-2.426-0.251c-0.701-0.166-1.22-0.334-1.551-0.498l0.809-2.093c0.137,0.072,0.313,0.149,0.525,0.231
	c0.217,0.084,0.456,0.16,0.729,0.231c0.269,0.072,0.552,0.132,0.853,0.181c0.303,0.047,0.611,0.069,0.932,0.069
	c0.751,0,1.322-0.124,1.721-0.366C423.391,127.102,423.593,126.732,423.593,126.229z"/>
<rect id="_x3C_Slice_x3E__9_" fill="none" width="485" height="201"/>
</svg>
